PathFileType	4	(X/Y/Z)	Patient4_TMGait_0pt4_02_left_07.trc.trc
DataRate	CameraRate	NumFrames	NumMarkers	Units	OrigDataRate	OrigDataStartFrame	OrigNumFrames
73.684210526316	73.684210526316	6	33	mm	73.684210526316	106	       141
Frame#	Time	Sacral			L.Shoulder			Chest			R.Shoulder			Neck			R.ASIS			L.ASIS			R.Thigh.Superior			R.Thigh.Lateral			R.Thigh.Inferior			R.Patella			L.Thigh.Superior			L.Thigh.Lateral			L.Thigh.Inferior			L.Patella			L.Shank.Superior			L.Shank.Lateral			L.Shank.Inferior			R.Shank.Superior			R.Shank.Lateral			R.Shank.Inferior			R.Heel			R.Midfoot.Superior			R.Midfoot.Lateral			R.Toe			L.Heel			L.Midfoot.Lateral			L.Midfoot.Superior			L.Toe			L.Elbow			L.Wrist			R.Elbow			R.Wrist			
		X1	Y1	Z1	X2	Y2	Z2	X3	Y3	Z3	X4	Y4	Z4	X5	Y5	Z5	X6	Y6	Z6	X7	Y7	Z7	X8	Y8	Z8	X9	Y9	Z9	X10	Y10	Z10	X11	Y11	Z11	X12	Y12	Z12	X13	Y13	Z13	X14	Y14	Z14	X15	Y15	Z15	X16	Y16	Z16	X17	Y17	Z17	X18	Y18	Z18	X19	Y19	Z19	X20	Y20	Z20	X21	Y21	Z21	X22	Y22	Z22	X23	Y23	Z23	X24	Y24	Z24	X25	Y25	Z25	X26	Y26	Z26	X27	Y27	Z27	X28	Y28	Z28	X29	Y29	Z29	X30	Y30	Z30	X31	Y31	Z31	X32	Y32	Z32	X33	Y33	Z33	

106	10.815000000000	893.120303236293	1007.359280386483	526.996083739593	1044.096944331232	1435.262397561861	321.329945479783	1168.278541508667	1372.410080233620	469.059074282051	1106.004656989303	1448.149650874231	650.937473379962	1050.101166779960	1499.670962521240	475.955205058177	1133.295927349057	946.181680369062	619.683250171987	1091.158095295451	970.030383732250	349.391830788563	1160.050848369323	739.012864489080	584.373966714948	1077.701278870561	633.329500756685	651.821212306910	1142.916489216037	577.938615765768	565.072161665722	1136.974026117812	491.617196078726	569.562837780545	1187.744369366412	799.203552368999	374.033461062600	1153.374075091106	670.709255273625	293.273962280841	1264.609853075689	618.056108552784	348.794928142700	1287.382406268009	533.552499492316	338.060609844660	1234.571874022080	459.161118861751	329.652687101950	1104.194363236593	387.385697197633	288.301716838565	1128.241204233437	256.389566517360	334.304497625531	1107.917591591581	403.427457782024	578.283004807053	1038.880901168195	301.017975168868	643.935714626281	1071.868983947273	205.894551697253	576.684335803040	931.961692928672	43.149675568233	554.837687599747	1104.586722444003	97.057825565588	582.321236549372	1018.444410964397	37.456286953103	625.886761773755	1226.196029385528	43.067740780007	604.661947896438	964.520520177296	151.890944323621	383.573596050429	1020.656942063723	120.462605187409	296.433837409328	1123.142537653008	147.742175059191	309.394762452725	1216.240002591557	53.391944821638	269.231275495797	930.904121217864	1094.822452553625	236.167417362825	924.057994542663	833.720344986027	235.741486244528	1200.831271274437	1126.936581104321	793.307103327670	1447.425385908687	1090.296829442528	737.509438459886	
107	10.828571428571	892.275108818603	1008.084121068198	529.082697668466	1042.544050826097	1435.397122807451	322.248399210539	1168.190931011639	1371.997207446267	468.478105071261	1108.403293663957	1448.167176886512	650.998244564239	1050.743219041495	1499.778073646852	476.643799548127	1132.691878522871	945.780434834126	619.330730952098	1088.313008556359	970.325668987440	349.404821516288	1157.147686438117	738.342616523705	583.820765692899	1074.501008855338	633.289770584184	652.215303389114	1138.454870904143	577.345435943117	565.066847901598	1131.881540617411	491.338456253445	569.801286912298	1184.825868775862	799.998166131159	373.929724493626	1150.656423583514	671.252968759423	293.477374711015	1261.703174359619	618.904559238557	349.407666152048	1285.688270058704	536.169436928063	338.356634956318	1236.841856496145	461.097844108361	329.584998158182	1111.776668585526	381.164829876667	287.911771830800	1144.797954837801	251.701808272721	333.398894695727	1102.764552759470	403.258735522079	578.653220693986	1033.731164616933	300.894492822367	644.391690929355	1066.424728246321	205.806079892613	576.965671950108	926.452095751794	43.119059827841	554.932556468296	1099.103474793471	97.007851238308	582.430400844375	1012.954344178102	37.405007019405	625.989764707648	1220.695721674012	43.042186817681	604.699065032760	989.094214714472	134.672432626539	382.591172346486	1047.349904875009	108.793576498346	294.952133832868	1147.465013017243	143.734527428922	307.872232127818	1247.629437681971	57.632095939552	266.537418747909	925.295923916563	1095.918679500607	239.595185077550	915.847584919434	834.889341297621	239.461071205621	1208.134381895440	1128.277373953925	791.486074349919	1454.922297098735	1104.335433803140	731.755521564358	
108	10.842142857143	891.391766186246	1008.696493010296	531.020495926508	1041.160814956575	1435.417254592526	323.012350912363	1168.160684932029	1371.395529376496	467.784389385198	1110.804118014478	1447.978926867124	650.905355397302	1051.471181392897	1499.748825459092	477.186797718878	1132.055463055782	945.308289501326	618.845272259064	1085.484672520473	970.382369522715	349.250975610555	1154.251106831369	737.645163556475	583.279561606910	1071.313025944299	633.212220785954	652.615285122413	1133.990752603020	576.736135039044	565.078686012760	1126.794748118958	491.052671157576	570.075405876703	1181.500738813709	800.097665221019	373.700579362208	1147.271674817578	671.228874120050	293.473493686567	1257.884323009670	618.893816534002	350.072797420729	1283.039415025768	538.165917675403	338.739723799040	1238.310095158551	462.669760578131	329.587395642506	1119.402363597563	374.697566081682	287.007521484216	1161.209277601569	247.362601161883	332.366111154852	1097.622492126138	403.078088497672	579.043848545754	1028.597210468735	300.743819889722	644.871892781321	1060.990860776292	205.691330245894	577.256009550160	920.937014249788	43.080103019223	555.025527063192	1093.615608453304	96.943173706227	582.528813506321	1007.461317252638	37.347331424913	626.092628549131	1215.196654256104	43.022047003535	604.739557781845	1014.194560457428	118.448537368250	380.785789392140	1074.663464211360	97.907524600428	293.153755145857	1171.837243219296	140.284384970309	306.483644498166	1278.627594397319	62.586445306090	264.984560417014	920.319769377948	1096.814709293190	242.635416231848	908.849845318924	835.846141582222	242.708564992943	1215.176438132465	1129.331314800468	789.385140208813	1461.486668663530	1117.331010442595	725.939094868100	
109	10.855714285714	890.468997474001	1009.199893404286	532.780029030768	1039.953349290113	1435.334331961969	323.599353802368	1168.174330591523	1370.633804079248	466.982357290735	1113.153287281168	1447.608889880140	650.653114164421	1052.264618393785	1499.595534827222	477.568042054243	1131.399640319401	944.781720514012	618.247362480099	1082.714521556475	970.222244459077	348.941900280577	1151.406385173708	736.923804696716	582.780092369193	1068.160987100940	633.095788941122	653.005546422822	1129.576083553928	576.118860022154	565.104785562406	1121.766698815291	490.752475382491	570.363082751572	1177.827202426216	799.562992246731	373.402462689833	1143.346002037054	670.714293762164	293.262046381653	1253.313955261033	618.146750233234	350.773784894222	1279.613641076873	539.616105817371	339.226209840603	1239.046732273961	463.937166814492	329.692168807286	1126.985197247567	368.299517879129	285.634930077239	1177.110124565528	243.625442137700	331.284454314553	1092.526914204672	402.881261595997	579.430380521098	1023.500637223912	300.572734442669	645.356302338145	1055.587856577037	205.550721266636	577.541778020613	915.419273729219	43.033730107085	555.115606565854	1088.120981622030	96.866290610662	582.610725591701	1001.965588147894	37.286916348206	626.194666248392	1209.698043908549	43.013806881283	604.782927470671	1039.173385340239	103.785240962401	378.241412788711	1101.969069952780	88.226940047886	291.144190808406	1195.711073575347	137.636174290812	305.326508882354	1308.552287112254	68.256237675654	264.730491884047	915.984072420785	1097.505987759659	245.237902220306	903.077248405800	836.569600233290	245.446108162958	1221.929766530305	1130.119343639521	787.017882599671	1467.213497712098	1129.162092243787	720.100583561886	
110	10.869285714286	889.519563299995	1009.602748448280	534.332720978783	1038.916581479520	1435.165317105556	323.989430811057	1168.215134225499	1369.753161520556	466.076350553340	1115.396042016404	1447.095799208658	650.236636210120	1053.095038852007	1499.338677527742	477.771343759174	1130.740701785527	944.221973043576	617.556945720764	1080.048498633113	969.880969682031	348.492625385769	1148.651075317963	736.183164546767	582.337837839720	1065.061456527813	632.943397685033	653.364276754761	1125.252315894950	575.501889133648	565.133829780177	1116.838569622449	490.432834093440	570.637273485141	1173.893277033958	798.486357864133	373.073976589914	1139.020909812890	669.800785147123	292.857755610093	1248.187003565721	616.812720625139	351.466510555237	1275.596937577072	540.598294774269	339.807815810089	1239.125494789860	464.946033855258	329.905024177427	1134.355757476407	362.236739954257	283.903627379614	1192.108133642225	240.640470537103	330.234160996508	1087.504489786454	402.665272625214	579.785752830995	1018.455552184347	300.391575773296	645.823626974769	1050.230104258584	205.389070559182	577.808849429490	909.900941866730	42.982368623067	555.201756257325	1082.617229298127	96.780096579034	582.670145784076	996.467651818042	37.227855214033	626.294695619061	1204.198910036350	43.022277899271	604.827938500667	1063.323986280633	91.061355260149	375.150709525929	1128.539803876588	80.013853390132	289.070340703879	1218.495872752877	135.905486942670	304.470440157434	1336.719726342814	74.523717766746	265.773442816511	912.293048033301	1097.995325158729	247.360346076755	898.532333244232	837.050528263228	247.636950064739	1228.349046138740	1130.675147534951	784.396749296539	1472.190426182649	1139.742353062555	714.270813570496	
111	10.882857142857	888.569425962321	1009.914496823970	535.651243865176	1038.033902945256	1434.928451691781	324.166342539351	1168.263836763588	1368.801550940340	465.070031491361	1117.479553203541	1446.487011917202	649.652361931890	1053.927144322033	1499.002705105495	477.781328333412	1130.098151008992	943.652093917832	616.792068130444	1077.536489189550	969.400903318323	347.920313828918	1146.015012675541	735.428814916056	581.952961355254	1062.026538532056	632.760260789551	653.665667103882	1121.052501536277	574.892135377919	565.148413110299	1112.042090082056	490.090241797223	570.869871873385	1169.821042541828	796.983134949126	372.731640001710	1134.446930296892	668.579995148591	292.296811535878	1242.724174761801	615.048608344013	352.086746973787	1271.173554735502	541.177936840869	340.453611675399	1238.617814356263	465.716391101846	330.206865329753	1141.269428273575	356.701722005219	281.981193572303	1205.803684326808	238.442000496389	329.292656176332	1082.576035305722	402.428468424150	580.084565566595	1013.470884111872	300.212622435650	646.254360558606	1044.926646693999	205.213504989337	578.044293755452	904.383312230883	42.929502652614	555.282918905032	1077.102201247748	96.686986682688	582.700932041167	990.968010846354	37.174079247020	626.391266815334	1198.698220521356	43.050000484786	604.872977211845	1085.925308455705	80.458778678453	371.803487214589	1153.581572605161	73.361298018617	287.108020912250	1239.581915742805	135.067531291921	303.951197961982	1362.456397774171	81.142406212994	267.940372309670	909.243157959979	1098.289303905559	248.970400800183	895.208339845034	837.288708065727	249.247659634284	1234.374032900650	1131.037418388331	781.534274072610	1476.493571323499	1149.016949310953	708.471675705358	
